<svg width="32" height="32" viewBox="0 0 192 192" fill="none" xmlns="http://www.w3.org/2000/svg">
    <g clip-path="url(#clip0_1_9)">
        <rect x="32" y="32" width="127" height="127" fill="#FFFFFF"/>
        <path d="M177.938 0H14.0625C10.3329 0 6.75604 1.48158 4.11881 4.11881C1.48158 6.75604 0 10.3329 0 14.0625L0 177.938C0 181.667 1.48158 185.244 4.11881 187.881C6.75604 190.518 10.3329 192 14.0625 192H177.938C181.667 192 185.244 190.518 187.881 187.881C190.518 185.244 192 181.667 192 177.938V14.0625C192 10.3329 190.518 6.75604 187.881 4.11881C185.244 1.48158 181.667 0 177.938 0ZM93.6187 126.75H144.401L144.75 155.023C144.75 155.023 110.895 157.817 82.8 157.817C58.5413 157.817 46.5 141.938 46.5 124.312V66.5475C46.5 48.9225 58.5413 33.5625 82.8 33.5625C111.769 33.5625 144.75 35.6569 144.75 35.6569L144.401 64.6256H93.6187C85.9406 64.6256 82.9725 68.4656 82.9725 74.3981V116.456C82.9725 122.391 85.9406 126.75 93.6187 126.75Z" fill="#F65335"/>
    </g>
    <defs>
        <clipPath id="clip0_1_9">
            <rect width="192" height="192" fill="white"/>
        </clipPath>
    </defs>
</svg>
