<svg width="64" height="64" viewBox="0 0 64 64" fill="none" xmlns="http://www.w3.org/2000/svg">
    <path fill-rule="evenodd" clip-rule="evenodd"
          d="M20.4161 10.623C19.1701 11.2548 17.9861 11.9915 16.873 12.8182L16.6515 45.6566H20.1784L20.4161 10.623ZM26.1588 45.6566L26.4098 8.50893C28.0836 8.15643 29.7895 7.9793 31.5 7.98042C45.0419 7.98042 56.0196 18.9581 56.0196 32.5015C56.0196 37.3422 54.6171 41.8552 52.1945 45.6566H26.1588ZM20.1371 51.6371H16.6087V51.981C17.7086 52.8225 18.8822 53.5754 20.1193 54.225L20.1371 51.6371ZM26.0865 56.4202L26.1175 51.6371H46.8297C42.4843 55.1291 37.0747 57.0291 31.5 57.0211C29.6399 57.0211 27.827 56.8144 26.085 56.4217L26.0865 56.4202ZM10.6697 45.444C8.25044 41.5606 6.97156 37.0753 6.97895 32.5C6.97895 27.6283 8.39913 23.0902 10.8483 19.274L10.6697 45.444ZM31.5 63C48.3444 63 62 49.3444 62 32.5C62 15.6556 48.3444 2 31.5 2C14.6556 2 1 15.6556 1 32.5C1 49.3444 14.6556 63 31.5 63Z"
          fill="black"/>
</svg>
