<svg width="32" height="32" viewBox="0 0 109 120" fill="none" xmlns="http://www.w3.org/2000/svg">
    <path fill-rule="evenodd" clip-rule="evenodd"
          d="M54.1182 38.7097C62.0032 38.7097 68.5096 44.6201 69.4607 52.2581H108.201C107.184 23.2243 83.3593 0 54.1182 0C24.2302 0 0.0012012 24.2633 0.0012012 54.1935C0.0012012 52.6296 0.0667766 51.0812 0.196427 49.5509C0.0667766 51.0812 0 52.6297 0 54.1935C2.11819e-06 84.1239 24.229 108.387 54.1171 108.387C55.6789 108.387 57.2253 108.321 58.7537 108.191C58.8834 106.661 58.9495 105.112 58.9495 103.548C58.9495 89.9416 53.942 77.5062 45.6717 67.9891C44.7299 67.0267 43.2414 65.4532 42.3204 64.2023C40.0348 61.5033 38.6562 58.0096 38.6562 54.1935C38.6562 45.642 45.5788 38.7097 54.1182 38.7097ZM69.5798 104.616C69.5798 113.113 76.5023 120 85.0418 120H108.235V62.9032H69.5798V104.616Z"
          fill="#114a32"/>
</svg>