<svg id="Layer_1" data-name="Layer 1" xmlns="http://www.w3.org/2000/svg" viewBox="0 0 1024 1024"><defs><style>.cls-1{fill:#f65335;}</style></defs><title>Artboard 15</title><path class="cls-1" d="M949,0H75A75,75,0,0,0,0,75V949a75,75,0,0,0,75,75H949a75,75,0,0,0,75-75V75A75,75,0,0,0,949,0ZM499.3,676H770.14L772,826.79s-180.56,14.9-330.4,14.9C312.22,841.69,248,757,248,663V354.92c0-94,64.22-175.92,193.6-175.92C596.1,179,772,190.17,772,190.17l-1.86,154.5H499.3c-40.95,0-56.78,20.48-56.78,52.12V621.1C442.52,652.75,458.35,676,499.3,676Z"/></svg>